Coordinates
version=1
nRows=13
nColumns=36
inDegrees=yes

Units are S.I. units (second, meters, Newtons, ...)
If the header above contains a line with 'inDegrees', this indicates whether rotational values are in degrees (yes) or radians (no).

endheader
time	pelvis_tilt	pelvis_list	pelvis_rotation	pelvis_tx	pelvis_ty	pelvis_tz	hip_flexion_r	hip_adduction_r	hip_rotation_r	knee_angle_r	knee_angle_r_beta	ankle_angle_r	subtalar_angle_r	mtp_angle_r	hip_flexion_l	hip_adduction_l	hip_rotation_l	knee_angle_l	knee_angle_l_beta	ankle_angle_l	subtalar_angle_l	mtp_angle_l	lumbar_extension	lumbar_bending	lumbar_rotation	arm_flex_r	arm_add_r	arm_rot_r	elbow_flex_r	pro_sup_r	arm_flex_l	arm_add_l	arm_rot_l	elbow_flex_l	pro_sup_l
     44.63333330	     -6.03556278	      1.58539039	     -0.92961639	      0.96741238	      0.83326173	      0.70852386	     30.24194896	     -1.32475329	     -0.84847626	     53.44374538	      0.93276932	      4.96261513	    -14.75566924	     -7.49999987	     10.08815467	      5.59033355	      7.16419324	     10.91847353	      0.19056331	      9.95299930	     -5.89309466	     -7.49999987	      3.03946987	     -1.04652624	     -4.72507830	      0.24882223	    -10.62609632	      5.01719021	     11.91132942	     90.82677549	     10.68622826	    -11.73933941	      7.75952365	     10.51428291	     85.18555468
     44.65000000	     -6.66042257	      1.44757500	     -0.47430503	      0.96559012	      0.82960924	      0.70636273	     31.67239834	     -1.40926352	     -0.89122011	     48.67812457	      0.84959355	      4.94547959	    -14.21563782	     -7.49999987	      9.41975052	      5.48656001	      7.11404638	     10.46324098	      0.18261801	     10.88400203	     -4.76624014	     -7.49999987	      3.87548796	     -0.73803242	     -5.88625038	     -0.19424272	    -10.78555823	      3.87698578	     11.44131363	     97.05759255	     11.07847470	    -12.18135024	      7.75994541	     11.22462191	     90.24127798
     44.66666670	     -7.17237041	      1.39041944	     -0.08741887	      0.96464690	      0.82388899	      0.70503775	     32.81623299	     -1.58199102	     -0.87611504	     43.92773364	      0.76668358	      4.54155213	    -13.65886015	     -7.49999987	      8.70979675	      5.45787320	      6.94186732	     10.07492599	      0.17584063	     11.70991366	     -4.16708771	     -7.49999987	      4.63193162	     -0.56815359	     -6.62487573	     -1.03196286	    -11.07432310	      3.63552199	     11.39853746	     96.47773832	     11.51491301	    -12.37077014	      7.58649256	     11.81110169	     89.76510964
     44.68333330	     -7.45024318	      1.35428609	      0.33352391	      0.96336702	      0.81770169	      0.70480155	     33.58357519	     -1.75899631	     -0.84033710	     39.15372348	      0.68336139	      3.81705486	    -13.23338764	     -7.49999987	      7.89553029	      5.43088351	      6.45475333	      9.98010738	      0.17418573	     13.18201098	     -3.15600440	     -7.49999987	      5.11159646	     -0.49084148	     -7.59907350	     -1.46925612	    -11.32429353	      3.10631902	     10.81023216	     95.94238008	     11.93279781	    -12.61203701	      7.30501516	     12.07887767	     89.40007974
     44.70000000	     -7.84820835	      1.36610206	      0.69926008	      0.96194118	      0.81233699	      0.70534432	     34.43586810	     -1.97622164	     -0.82694129	     34.50942628	      0.60230311	      3.35200607	    -12.43916056	     -7.49999987	      7.14670226	      5.46703131	      6.04862886	      9.85946415	      0.17208011	     14.67192039	     -2.41526616	     -7.49999987	      5.76366243	     -0.53105497	     -8.25963347	     -2.17208117	    -11.65903779	      2.66870580	     10.64200163	     95.31984617	     12.24726836	    -12.87778621	      7.09763409	     12.69949878	     88.94276768
     44.71666670	     -8.22946528	      1.37694731	      1.06684419	      0.96111467	      0.80902253	      0.70594836	     35.11579357	     -2.13396115	     -0.62480356	     29.70326289	      0.51841974	      2.73111810	    -11.83554339	     -7.49999987	      6.34590167	      5.51777742	      5.65066160	      9.85685547	      0.17203458	     16.32899591	     -1.42917282	     -7.49999987	      6.41765405	     -0.58838136	     -9.07226119	     -2.57648128	    -11.86032229	      1.94587923	     10.15719996	     94.13106037	     12.48828059	    -13.14145424	      6.67941233	     13.13022767	     88.00865503
     44.73333330	     -8.80293164	      1.20846534	      1.48110013	      0.96161791	      0.80710586	      0.70614315	     35.73201806	     -2.16442068	     -0.61902573	     24.58992509	      0.42917516	      2.58807428	    -10.76297567	     -7.49999987	      5.65231054	      5.41559334	      5.51232333	      9.91703727	      0.17308495	     17.68063327	     -0.89362140	     -7.49999987	      7.40496566	     -0.47286449	     -9.86468884	     -3.30514304	    -12.22229064	      1.41778898	     10.18288220	     93.07099306	     12.45985086	    -13.35772808	      6.47418348	     13.89671830	     87.22513393
     44.75000000	     -9.12581510	      1.07779396	      1.94795237	      0.96251367	      0.80588983	      0.70643795	     35.84170136	     -2.19321348	     -0.47202127	     19.22506995	      0.33554077	      2.76259726	     -9.60612071	     -7.49999987	      4.66820600	      5.29858726	      5.24452485	     10.16105276	      0.17734383	     19.08261305	      0.23173007	     -7.49999987	      8.05047228	     -0.52424994	    -10.40843300	     -3.73565875	    -12.15137008	     -3.88606796	      9.35432961	     99.34591671	     12.60526623	    -13.61843449	      6.03100943	     14.72072444	     91.66929923
     44.76666670	     -9.70749658	      0.93868377	      2.30576784	      0.96365843	      0.80363662	      0.70688339	     35.94079609	     -2.13395736	      0.07262934	     13.59188386	      0.23722312	      3.08156590	     -8.42835117	     -7.49999987	      3.91010811	      5.15179416	      5.19548914	     10.47864239	      0.18288681	     19.85917089	      0.55756329	     -7.49999987	      9.12823706	     -0.54474923	    -10.90634754	     -4.44516584	    -12.41564139	     -3.81475096	      9.22472812	     98.26738689	     12.44419735	    -13.73626096	      6.03196533	     15.24798101	     90.39311983
     44.78333330	     -9.87728770	      0.90661544	      2.61866065	      0.96448193	      0.80028425	      0.70705794	     35.39232247	     -2.21002608	      1.08394977	      8.07228063	      0.14088788	      3.51111986	     -7.28122992	     -7.49999987	      2.78402567	      4.99442401	      5.01216197	     11.03060609	      0.19252039	     20.66813608	      1.34139043	     -7.49999987	      9.59644123	     -0.65382538	    -11.13945273	     -4.87384550	    -12.56009610	     -3.94994956	      8.85079726	     98.54023558	     12.36748566	    -13.90281654	      6.39042664	     16.03246122	     90.76470149
     44.80000000	    -10.32860312	      1.05390381	      2.72563299	      0.96513102	      0.79474136	      0.70691359	     35.28252362	     -2.51174695	      2.40888651	      3.64748610	      0.06366064	      4.08951479	     -6.35257932	     -7.49999987	      2.05927191	      4.96083392	      4.99446777	     11.85817450	      0.20696419	     21.22347986	      1.32560509	     -7.49999987	     10.48222652	     -0.97543031	    -10.96698321	     -5.51961743	    -12.66734422	     -3.98634761	      8.79375628	     98.57783200	     12.14687097	    -13.96597342	      6.46717532	     16.42911855	     90.83838039
     44.81666670	    -10.57654545	      1.26982570	      2.61862651	      0.96497497	      0.78882127	      0.70660766	     35.42693109	     -2.86522271	      3.61028782	      1.29196303	      0.02254901	      5.01474805	     -5.76507760	     -7.49999987	      1.32680371	      4.90494155	      4.85276640	     13.06849398	      0.22808825	     21.70049449	      1.18471496	     -7.49999987	     10.98033268	     -1.27163632	    -10.71388764	     -5.76911536	    -12.79479090	     -4.00002550	      8.84439912	     98.58643728	     11.97770661	    -14.03468810	      6.50961057	     16.68180845	     90.87424254
     44.83333330	    -10.85825812	      1.27095994	      2.38538295	      0.96453553	      0.78363561	      0.70634175	     35.84109008	     -2.91971525	      3.83727004	      0.76415010	      0.01333694	      5.86140347	     -5.17890008	     -7.49999987	      0.84164767	      4.54575118	      4.22492402	     14.62839651	      0.25531368	     22.35279704	      1.72077218	     -7.49999987	     11.43533434	     -1.25531367	    -10.09446933	     -6.17729928	    -13.16309166	     -4.02189330	      9.21179166	     98.87658987	     11.78120042	    -13.96197226	      6.81191355	     17.52863598	     91.27854024
